<svg width="24" height="24" viewBox="0 0 24 24" fill="none" xmlns="http://www.w3.org/2000/svg">
  <path d="M9 3H15C16.1046 3 17 3.89543 17 5V7H19C20.1046 7 21 7.89543 21 9V19C21 20.1046 20.1046 21 19 21H5C3.89543 21 3 20.1046 3 19V9C3 7.89543 3.89543 7 5 7H7V5C7 3.89543 7.89543 3 9 3Z" stroke="currentColor" stroke-width="2" stroke-linecap="round" stroke-linejoin="round"/>
  <path d="M7 11H17" stroke="currentColor" stroke-width="2" stroke-linecap="round"/>
  <path d="M7 15H17" stroke="currentColor" stroke-width="2" stroke-linecap="round"/>
  <path d="M10 7V3" stroke="currentColor" stroke-width="2" stroke-linecap="round"/>
  <path d="M14 7V3" stroke="currentColor" stroke-width="2" stroke-linecap="round"/>
</svg>